<?xml version="1.0" encoding="utf-8"?>
<?xml-stylesheet type="text/xsl" href="rss1.xsl"?>
<rss version="2.0" xmlns:atom="http://www.w3.org/2005/Atom" xmlns:content="http://purl.org/rss/1.0/modules/content/" xmlns:dc="http://purl.org/dc/elements/1.1/" xmlns:media="http://search.yahoo.com/mrss/">
<channel>
 <title>Getty</title>
 <link>http://www.gettyimg.com/</link>
 <atom:link href="http://www.gettyimg.com/" rel="self" type="application/rss+xml" />

 
                <item>
                <title><![CDATA[【Apple Music】WEB-RiP - Ana Mena - Madrid City |Apple Music Web 1440|]]></title>
                <link><![CDATA[https://sharemania.us/threads/ana-mena-madrid-city-apple-music-web-1440.229381/]]></link>
                <description><![CDATA[<article>
<blockquote class="messageText SelectQuoteContainer ugc baseHtml">
<div style="text-align: center"><img src="https://i.imgur.com/qZZ9bcj.gif" class="bbCodeImage LbImage" alt="[​IMG]" data-url="https://i.imgur.com/qZZ9bcj.gif" style=""><br>
<div class="ToggleTriggerAnchor bbCodeSpoilerContainer">
<button type="button" class="button bbCodeSpoilerButton ToggleTrigger Tooltip JsOnly" data-target="> .SpoilerTarget"><span>Spoiler: <span class="SpoilerTitle">Apple Music</span></span></button>
<div class="SpoilerTarget bbCodeSpoilerText">
<div class="bbCodeBlock bbCodeCode">
<div class="type">Code:</div>
<pre>Format                                   : MPEG-4
Format profile                           : Base Media
Codec ID                                 : isom (isom/iso2/mp41)
File size                                : 278 MiB
Duration                                 : 3 min 10 s
Overall bit rate                         : 12.2 Mb/s
Movie name                               : Madrid City
Performer                                : Ana Mena
Genre                                    : Pop en español
ContentType                              : Music Video
Recorded date                            : 2023-09-20
ISRC                                     : ES1022300779

Video
ID                                       : 1
Format                                   : HEVC
Format/Info                              : High Efficiency Video Coding
Format profile                           : Main 10@L5@High
Codec ID                                 : hvc1
Codec ID/Info                            : High Efficiency Video Coding
Duration                                 : 3 min 10 s
Bit rate                                 : 12.0 Mb/s
Width                                    : 2 048 pixels
Height                                   : 1 152 pixels
Display aspect ratio                     : 16:9
Frame rate mode                          : Constant
Frame rate                               : 25.000 FPS
Color space                              : YUV
Chroma subsampling                       : 4:2:0
Bit depth                                : 10 bits
Scan type                                : Progressive
Bits/(Pixel*Frame)                       : 0.203
Stream size                              : 272 MiB (98%)
Title                                    : Core Media Video
Color range                              : Limited
Color primaries                          : BT.709
Transfer characteristics                 : BT.709
Matrix coefficients                      : BT.709
Codec configuration box                  : hvcC

Audio
ID                                       : 2
Format                                   : AAC LC
Format/Info                              : Advanced Audio Codec Low Complexity
Codec ID                                 : mp4a-40-2
Duration                                 : 3 min 10 s
Bit rate mode                            : Constant
Bit rate                                 : 265 kb/s
Channel(s)                               : 2 channels
Channel layout                           : L R
Sampling rate                            : 48.0 kHz
Frame rate                               : 46.875 FPS (1024 SPF)
Compression mode                         : Lossy
Stream size                              : 5.98 MiB (2%)
Title                                    : Core Media Audio
Default                                  : Yes
Alternate group                          : 1</pre>
</div></div>
</div><img src="https://i.postimg.cc/k5WnYdcc/53-removebg-preview-removebg-preview.png" class="bbCodeImage LbImage" alt="[​IMG]" data-url="https://i.postimg.cc/k5WnYdcc/53-removebg-preview-removebg-preview.png" style=""><br>
<div class="bbCodeBlock bbCodeVfcHH HiddenContent">
<div class="attribution type">Hidden Content:</div>
<blockquote>You must reply before you can see the hidden data contained here.</blockquote>
</div></div>
<div class="messageTextEndMarker">&nbsp;</div>
</blockquote>
</article>]]></description>
                <author><![CDATA[fstambuk]]></author>
                </item>

                
                <item>
                <title><![CDATA[【Albums (lossy)】MP3 - Jennifer Lopez - Rebirth (2005, 2022) (Fan Made)]]></title>
                <link><![CDATA[https://sharemania.us/threads/jennifer-lopez-rebirth-2005-2022-fan-made.229382/]]></link>
                <description><![CDATA[<article>
<blockquote class="messageText SelectQuoteContainer ugc baseHtml">
<div style="text-align: center"><img src="https://i.postimg.cc/XJkMN49K/a-Jennifer-Lopez-Rebirth-C.jpg" class="bbCodeImage LbImage" alt="[​IMG]" data-url="https://i.postimg.cc/XJkMN49K/a-Jennifer-Lopez-Rebirth-C.jpg" style=""> <br>
<img src="https://i.postimg.cc/tTjQHYnC/a-Jennifer-Lopez-Rebirth-D.jpg" class="bbCodeImage LbImage" alt="[​IMG]" data-url="https://i.postimg.cc/tTjQHYnC/a-Jennifer-Lopez-Rebirth-D.jpg" style=""> <br>
<br>
<img src="https://i.postimg.cc/hjfRWV1V/SHAREMANIA-DRIVE-FORUM-LINK.jpg" class="bbCodeImage LbImage" alt="[​IMG]" data-url="https://i.postimg.cc/hjfRWV1V/SHAREMANIA-DRIVE-FORUM-LINK.jpg" style=""> <br>
<a href="https://ulozto.net/file/jWlR9XzjL3aE/jennifer-lopez-rebirth-2022-fan-made-zip#!ZJH0LGR2ZzIvLwOuLzHmMJRmMwWvAHIuZ0kSGJckL3D0szExZt==" target="_blank" class="externalLink" rel="nofollow">https://ulozto.net/file/jWlR9XzjL3a...2ZzIvLwOuLzHmMJRmMwWvAHIuZ0kSGJckL3D0szExZt==</a>​</div>
<div class="messageTextEndMarker">&nbsp;</div>
</blockquote>
</article>]]></description>
                <author><![CDATA[Fan Made]]></author>
                </item>

                </channel></rss>